<svg width="60" height="60" fill="none" xmlns="http://www.w3.org/2000/svg"><path fill="#fff" d="M7 6h48v47H7z"/><path d="M30 24.034a5.976 5.976 0 00-5.968 5.965 5.975 5.975 0 005.967 5.967A5.973 5.973 0 0035.965 30a5.972 5.972 0 00-5.966-5.965zm0 0a5.976 5.976 0 00-5.968 5.965 5.975 5.975 0 005.967 5.967A5.973 5.973 0 0035.965 30a5.972 5.972 0 00-5.966-5.965zm9.94-9.728H20.06a5.76 5.76 0 00-5.754 5.753v19.878a5.762 5.762 0 005.753 5.755h19.878a5.762 5.762 0 005.755-5.755V20.061a5.76 5.76 0 00-5.753-5.755zM30 40.332c-5.698 0-10.332-4.636-10.332-10.333s4.636-10.333 10.331-10.333c5.698 0 10.333 4.636 10.333 10.333 0 5.698-4.636 10.333-10.333 10.333zm10.665-18.528a2.447 2.447 0 01-2.446-2.446 2.448 2.448 0 012.446-2.445 2.448 2.448 0 012.445 2.445 2.45 2.45 0 01-2.445 2.446zm-10.666 2.23a5.976 5.976 0 00-5.967 5.965 5.975 5.975 0 005.967 5.967A5.973 5.973 0 0035.965 30a5.972 5.972 0 00-5.966-5.965zm9.94-9.728H20.06a5.76 5.76 0 00-5.753 5.753v19.878a5.762 5.762 0 005.753 5.755h19.878a5.762 5.762 0 005.755-5.755V20.061a5.76 5.76 0 00-5.753-5.755zM30 40.332c-5.697 0-10.331-4.636-10.331-10.333S24.305 19.666 30 19.666c5.698 0 10.333 4.636 10.333 10.333 0 5.698-4.636 10.333-10.333 10.333zm10.666-18.528a2.447 2.447 0 01-2.446-2.446 2.448 2.448 0 012.446-2.445 2.448 2.448 0 012.445 2.445 2.45 2.45 0 01-2.445 2.446zM30 24.034a5.976 5.976 0 00-5.967 5.965A5.975 5.975 0 0030 35.966 5.973 5.973 0 0035.965 30a5.972 5.972 0 00-5.966-5.965zM0 0v60h60V0H0zm50.058 39.94c0 5.581-4.538 10.12-10.12 10.12h-19.88c-5.58 0-10.12-4.539-10.12-10.12V20.06c0-5.58 4.54-10.12 10.12-10.12h19.878c5.581 0 10.121 4.54 10.121 10.12v19.88zM39.94 14.305H20.06a5.76 5.76 0 00-5.753 5.753v19.878a5.762 5.762 0 005.753 5.755h19.878a5.762 5.762 0 005.755-5.755V20.061a5.76 5.76 0 00-5.753-5.755zM30 40.332c-5.697 0-10.331-4.636-10.331-10.333S24.305 19.666 30 19.666c5.698 0 10.333 4.636 10.333 10.333 0 5.698-4.636 10.333-10.333 10.333zm10.666-18.528a2.447 2.447 0 01-2.446-2.446 2.448 2.448 0 012.446-2.445 2.448 2.448 0 012.445 2.445 2.45 2.45 0 01-2.445 2.446zM30 24.034a5.976 5.976 0 00-5.967 5.965A5.975 5.975 0 0030 35.966 5.973 5.973 0 0035.965 30a5.972 5.972 0 00-5.966-5.965zm0 0a5.976 5.976 0 00-5.967 5.965A5.975 5.975 0 0030 35.966 5.973 5.973 0 0035.965 30a5.972 5.972 0 00-5.966-5.965zm0 0a5.976 5.976 0 00-5.967 5.965A5.975 5.975 0 0030 35.966 5.973 5.973 0 0035.965 30a5.972 5.972 0 00-5.966-5.965zm9.94-9.728H20.06a5.76 5.76 0 00-5.753 5.753v19.878a5.762 5.762 0 005.753 5.755h19.878a5.762 5.762 0 005.755-5.755V20.061a5.76 5.76 0 00-5.753-5.755zM30 40.332c-5.697 0-10.331-4.636-10.331-10.333S24.305 19.666 30 19.666c5.698 0 10.333 4.636 10.333 10.333 0 5.698-4.636 10.333-10.333 10.333zm10.666-18.528a2.447 2.447 0 01-2.446-2.446 2.448 2.448 0 012.446-2.445 2.448 2.448 0 012.445 2.445 2.45 2.45 0 01-2.445 2.446zM30 24.034a5.976 5.976 0 00-5.967 5.965A5.975 5.975 0 0030 35.966 5.973 5.973 0 0035.965 30a5.972 5.972 0 00-5.966-5.965zm0 0a5.976 5.976 0 00-5.967 5.965A5.975 5.975 0 0030 35.966 5.973 5.973 0 0035.965 30a5.972 5.972 0 00-5.966-5.965zm0 0a5.976 5.976 0 00-5.967 5.965A5.975 5.975 0 0030 35.966 5.973 5.973 0 0035.965 30a5.972 5.972 0 00-5.966-5.965zm9.94-9.728H20.06a5.76 5.76 0 00-5.753 5.753v19.878a5.762 5.762 0 005.753 5.755h19.878a5.762 5.762 0 005.755-5.755V20.061a5.76 5.76 0 00-5.753-5.755zM30 40.332c-5.697 0-10.331-4.636-10.331-10.333S24.305 19.666 30 19.666c5.698 0 10.333 4.636 10.333 10.333 0 5.698-4.636 10.333-10.333 10.333zm10.666-18.528a2.447 2.447 0 01-2.446-2.446 2.448 2.448 0 012.446-2.445 2.448 2.448 0 012.445 2.445 2.45 2.45 0 01-2.445 2.446zM30 24.034a5.976 5.976 0 00-5.967 5.965A5.975 5.975 0 0030 35.966 5.973 5.973 0 0035.965 30a5.972 5.972 0 00-5.966-5.965z" fill="#D82D77"/><path d="M30 24.034a5.976 5.976 0 00-5.968 5.965 5.975 5.975 0 005.967 5.967A5.973 5.973 0 0035.965 30a5.972 5.972 0 00-5.966-5.965zm0 0a5.976 5.976 0 00-5.968 5.965 5.975 5.975 0 005.967 5.967A5.973 5.973 0 0035.965 30a5.972 5.972 0 00-5.966-5.965zm9.94-9.728H20.06a5.76 5.76 0 00-5.754 5.753v19.878a5.762 5.762 0 005.753 5.755h19.878a5.762 5.762 0 005.755-5.755V20.061a5.76 5.76 0 00-5.753-5.755zM30 40.332c-5.698 0-10.332-4.636-10.332-10.333s4.636-10.333 10.331-10.333c5.698 0 10.333 4.636 10.333 10.333 0 5.698-4.636 10.333-10.333 10.333zm10.665-18.528a2.447 2.447 0 01-2.446-2.446 2.448 2.448 0 012.446-2.445 2.448 2.448 0 012.445 2.445 2.45 2.45 0 01-2.445 2.446zm-10.666 2.23a5.976 5.976 0 00-5.967 5.965 5.975 5.975 0 005.967 5.967A5.973 5.973 0 0035.965 30a5.972 5.972 0 00-5.966-5.965zm9.94-9.728H20.06a5.76 5.76 0 00-5.753 5.753v19.878a5.762 5.762 0 005.753 5.755h19.878a5.762 5.762 0 005.755-5.755V20.061a5.76 5.76 0 00-5.753-5.755zM30 40.332c-5.697 0-10.331-4.636-10.331-10.333S24.305 19.666 30 19.666c5.698 0 10.333 4.636 10.333 10.333 0 5.698-4.636 10.333-10.333 10.333zm10.666-18.528a2.447 2.447 0 01-2.446-2.446 2.448 2.448 0 012.446-2.445 2.448 2.448 0 012.445 2.445 2.45 2.45 0 01-2.445 2.446zM30 24.034a5.976 5.976 0 00-5.967 5.965A5.975 5.975 0 0030 35.966 5.973 5.973 0 0035.965 30a5.972 5.972 0 00-5.966-5.965zM0 0v60h60V0H0zm50.058 39.94c0 5.581-4.538 10.12-10.12 10.12h-19.88c-5.58 0-10.12-4.539-10.12-10.12V20.06c0-5.58 4.54-10.12 10.12-10.12h19.878c5.581 0 10.121 4.54 10.121 10.12v19.88zM39.94 14.305H20.06a5.76 5.76 0 00-5.753 5.753v19.878a5.762 5.762 0 005.753 5.755h19.878a5.762 5.762 0 005.755-5.755V20.061a5.76 5.76 0 00-5.753-5.755zM30 40.332c-5.697 0-10.331-4.636-10.331-10.333S24.305 19.666 30 19.666c5.698 0 10.333 4.636 10.333 10.333 0 5.698-4.636 10.333-10.333 10.333zm10.666-18.528a2.447 2.447 0 01-2.446-2.446 2.448 2.448 0 012.446-2.445 2.448 2.448 0 012.445 2.445 2.45 2.45 0 01-2.445 2.446zM30 24.034a5.976 5.976 0 00-5.967 5.965A5.975 5.975 0 0030 35.966 5.973 5.973 0 0035.965 30a5.972 5.972 0 00-5.966-5.965zm0 0a5.976 5.976 0 00-5.967 5.965A5.975 5.975 0 0030 35.966 5.973 5.973 0 0035.965 30a5.972 5.972 0 00-5.966-5.965zm0 0a5.976 5.976 0 00-5.967 5.965A5.975 5.975 0 0030 35.966 5.973 5.973 0 0035.965 30a5.972 5.972 0 00-5.966-5.965zm9.94-9.728H20.06a5.76 5.76 0 00-5.753 5.753v19.878a5.762 5.762 0 005.753 5.755h19.878a5.762 5.762 0 005.755-5.755V20.061a5.76 5.76 0 00-5.753-5.755zM30 40.332c-5.697 0-10.331-4.636-10.331-10.333S24.305 19.666 30 19.666c5.698 0 10.333 4.636 10.333 10.333 0 5.698-4.636 10.333-10.333 10.333zm10.666-18.528a2.447 2.447 0 01-2.446-2.446 2.448 2.448 0 012.446-2.445 2.448 2.448 0 012.445 2.445 2.45 2.45 0 01-2.445 2.446zM30 24.034a5.976 5.976 0 00-5.967 5.965A5.975 5.975 0 0030 35.966 5.973 5.973 0 0035.965 30a5.972 5.972 0 00-5.966-5.965zm0 0a5.976 5.976 0 00-5.967 5.965A5.975 5.975 0 0030 35.966 5.973 5.973 0 0035.965 30a5.972 5.972 0 00-5.966-5.965zm0 0a5.976 5.976 0 00-5.967 5.965A5.975 5.975 0 0030 35.966 5.973 5.973 0 0035.965 30a5.972 5.972 0 00-5.966-5.965zm9.94-9.728H20.06a5.76 5.76 0 00-5.753 5.753v19.878a5.762 5.762 0 005.753 5.755h19.878a5.762 5.762 0 005.755-5.755V20.061a5.76 5.76 0 00-5.753-5.755zM30 40.332c-5.697 0-10.331-4.636-10.331-10.333S24.305 19.666 30 19.666c5.698 0 10.333 4.636 10.333 10.333 0 5.698-4.636 10.333-10.333 10.333zm10.666-18.528a2.447 2.447 0 01-2.446-2.446 2.448 2.448 0 012.446-2.445 2.448 2.448 0 012.445 2.445 2.45 2.45 0 01-2.445 2.446zM30 24.034a5.976 5.976 0 00-5.967 5.965A5.975 5.975 0 0030 35.966 5.973 5.973 0 0035.965 30a5.972 5.972 0 00-5.966-5.965z" fill="url(#paint0_linear)"/><path d="M30 24.034a5.976 5.976 0 00-5.968 5.965 5.975 5.975 0 005.967 5.967A5.973 5.973 0 0035.965 30a5.972 5.972 0 00-5.966-5.965zm0 0a5.976 5.976 0 00-5.968 5.965 5.975 5.975 0 005.967 5.967A5.973 5.973 0 0035.965 30a5.972 5.972 0 00-5.966-5.965zm9.94-9.728H20.06a5.76 5.76 0 00-5.754 5.753v19.878a5.762 5.762 0 005.753 5.755h19.878a5.762 5.762 0 005.755-5.755V20.061a5.76 5.76 0 00-5.753-5.755zM30 40.332c-5.698 0-10.332-4.636-10.332-10.333s4.636-10.333 10.331-10.333c5.698 0 10.333 4.636 10.333 10.333 0 5.698-4.636 10.333-10.333 10.333zm10.665-18.528a2.447 2.447 0 01-2.446-2.446 2.448 2.448 0 012.446-2.445 2.448 2.448 0 012.445 2.445 2.45 2.45 0 01-2.445 2.446zm-10.666 2.23a5.976 5.976 0 00-5.967 5.965 5.975 5.975 0 005.967 5.967A5.973 5.973 0 0035.965 30a5.972 5.972 0 00-5.966-5.965zm9.94-9.728H20.06a5.76 5.76 0 00-5.753 5.753v19.878a5.762 5.762 0 005.753 5.755h19.878a5.762 5.762 0 005.755-5.755V20.061a5.76 5.76 0 00-5.753-5.755zM30 40.332c-5.697 0-10.331-4.636-10.331-10.333S24.305 19.666 30 19.666c5.698 0 10.333 4.636 10.333 10.333 0 5.698-4.636 10.333-10.333 10.333zm10.666-18.528a2.447 2.447 0 01-2.446-2.446 2.448 2.448 0 012.446-2.445 2.448 2.448 0 012.445 2.445 2.45 2.45 0 01-2.445 2.446zM30 24.034a5.976 5.976 0 00-5.967 5.965A5.975 5.975 0 0030 35.966 5.973 5.973 0 0035.965 30a5.972 5.972 0 00-5.966-5.965zM0 0v60h60V0H0zm50.058 39.94c0 5.581-4.538 10.12-10.12 10.12h-19.88c-5.58 0-10.12-4.539-10.12-10.12V20.06c0-5.58 4.54-10.12 10.12-10.12h19.878c5.581 0 10.121 4.54 10.121 10.12v19.88zM39.94 14.305H20.06a5.76 5.76 0 00-5.753 5.753v19.878a5.762 5.762 0 005.753 5.755h19.878a5.762 5.762 0 005.755-5.755V20.061a5.76 5.76 0 00-5.753-5.755zM30 40.332c-5.697 0-10.331-4.636-10.331-10.333S24.305 19.666 30 19.666c5.698 0 10.333 4.636 10.333 10.333 0 5.698-4.636 10.333-10.333 10.333zm10.666-18.528a2.447 2.447 0 01-2.446-2.446 2.448 2.448 0 012.446-2.445 2.448 2.448 0 012.445 2.445 2.45 2.45 0 01-2.445 2.446zM30 24.034a5.976 5.976 0 00-5.967 5.965A5.975 5.975 0 0030 35.966 5.973 5.973 0 0035.965 30a5.972 5.972 0 00-5.966-5.965zm0 0a5.976 5.976 0 00-5.967 5.965A5.975 5.975 0 0030 35.966 5.973 5.973 0 0035.965 30a5.972 5.972 0 00-5.966-5.965zm0 0a5.976 5.976 0 00-5.967 5.965A5.975 5.975 0 0030 35.966 5.973 5.973 0 0035.965 30a5.972 5.972 0 00-5.966-5.965zm9.94-9.728H20.06a5.76 5.76 0 00-5.753 5.753v19.878a5.762 5.762 0 005.753 5.755h19.878a5.762 5.762 0 005.755-5.755V20.061a5.76 5.76 0 00-5.753-5.755zM30 40.332c-5.697 0-10.331-4.636-10.331-10.333S24.305 19.666 30 19.666c5.698 0 10.333 4.636 10.333 10.333 0 5.698-4.636 10.333-10.333 10.333zm10.666-18.528a2.447 2.447 0 01-2.446-2.446 2.448 2.448 0 012.446-2.445 2.448 2.448 0 012.445 2.445 2.45 2.45 0 01-2.445 2.446zM30 24.034a5.976 5.976 0 00-5.967 5.965A5.975 5.975 0 0030 35.966 5.973 5.973 0 0035.965 30a5.972 5.972 0 00-5.966-5.965zm0 0a5.976 5.976 0 00-5.967 5.965A5.975 5.975 0 0030 35.966 5.973 5.973 0 0035.965 30a5.972 5.972 0 00-5.966-5.965zm0 0a5.976 5.976 0 00-5.967 5.965A5.975 5.975 0 0030 35.966 5.973 5.973 0 0035.965 30a5.972 5.972 0 00-5.966-5.965zm9.94-9.728H20.06a5.76 5.76 0 00-5.753 5.753v19.878a5.762 5.762 0 005.753 5.755h19.878a5.762 5.762 0 005.755-5.755V20.061a5.76 5.76 0 00-5.753-5.755zM30 40.332c-5.697 0-10.331-4.636-10.331-10.333S24.305 19.666 30 19.666c5.698 0 10.333 4.636 10.333 10.333 0 5.698-4.636 10.333-10.333 10.333zm10.666-18.528a2.447 2.447 0 01-2.446-2.446 2.448 2.448 0 012.446-2.445 2.448 2.448 0 012.445 2.445 2.45 2.45 0 01-2.445 2.446zM30 24.034a5.976 5.976 0 00-5.967 5.965A5.975 5.975 0 0030 35.966 5.973 5.973 0 0035.965 30a5.972 5.972 0 00-5.966-5.965z" fill="url(#paint1_linear)"/><defs><linearGradient id="paint0_linear" x1="16.5" y1="0" x2="46.5" y2="55" gradientUnits="userSpaceOnUse"><stop stop-color="#555BCD"/><stop offset="1" stop-color="#DB2E7B" stop-opacity="0"/></linearGradient><linearGradient id="paint1_linear" x1="-5" y1="67" x2="40" y2="30" gradientUnits="userSpaceOnUse"><stop stop-color="#FCAE51"/><stop offset="1" stop-color="#FFD166" stop-opacity="0"/></linearGradient></defs></svg>