<svg width="60" height="60" fill="none" xmlns="http://www.w3.org/2000/svg"><path fill="#fff" d="M5 4h49v51H5z"/><path d="M41.636 19.735l-22.008 13.65a1 1 0 00-.43 1.146l2.953 9.512c.062.2.352.173.377-.036l.717-6.378c.028-.247.147-.474.333-.639l18.635-16.48c.446-.392-.072-1.088-.577-.775z" fill="#34ABDE"/><path d="M0 0v60h60V0H0zm50.014 15.59l-6.85 32.75c-.32 1.537-2.124 2.227-3.39 1.299l-10.343-7.592-5.272 5.382a1.75 1.75 0 01-2.921-.7l-3.805-12.074-10.195-3.009C5.9 31.252 5.82 29.387 7.12 28.88l40.122-15.635c1.529-.596 3.107.74 2.771 2.345z" fill="#34ABDE"/></svg>