<svg width="60" height="60" fill="none" xmlns="http://www.w3.org/2000/svg"><path fill="#fff" d="M6 6h48v49H6z"/><path d="M38.98 13.875a47.842 47.842 0 00-17.961 0c-2.607.58-5.887 3.722-6.527 6.25a34.358 34.358 0 000 14.74c.64 2.528 3.92 5.672 6.527 6.25h.001a.25.25 0 01.201.243v7.165c0 .359.438.535.686.276l3.404-3.493 3.199-3.285a.244.244 0 01.182-.074 47.896 47.896 0 0010.288-.831c2.607-.581 5.888-3.723 6.527-6.25a34.308 34.308 0 000-14.74c-.639-2.529-3.919-5.672-6.527-6.251zm.09 21.354c-.522 1.108-1.28 2.028-2.374 2.617-.31.166-.678.219-1.026.326-.401-.122-.783-.203-1.137-.35-3.676-1.526-7.058-3.493-9.737-6.508-1.524-1.715-2.718-3.65-3.725-5.7-.477-.972-.88-1.982-1.292-2.984-.373-.915.178-1.86.76-2.55.544-.646 1.245-1.141 2.005-1.507.593-.285 1.177-.12 1.611.382.937 1.086 1.796 2.228 2.492 3.487.428.775.311 1.722-.464 2.248-.188.129-.36.278-.537.423-.153.127-.3.255-.405.426-.192.315-.202.685-.077 1.027.956 2.63 2.57 4.674 5.215 5.775.423.176.85.382 1.337.324.818-.095 1.08-.99 1.654-1.46.56-.457 1.273-.464 1.877-.082a39.57 39.57 0 011.768 1.205c.57.406 1.137.803 1.664 1.267.503.446.676 1.03.391 1.634zm-4.744-8.566c-.229.004-.139 0-.053-.003-.369-.013-.568-.229-.607-.58-.03-.257-.051-.52-.114-.768-.121-.493-.383-.95-.796-1.252a2.08 2.08 0 00-.65-.313c-.295-.085-.603-.062-.897-.135-.32-.077-.496-.337-.446-.636a.577.577 0 01.609-.465c1.863.135 3.196 1.098 3.385 3.293.013.155.03.318-.005.466-.056.24-.227.367-.402.389.017.001.015.001-.024.004zm-1.16-5.019a6.568 6.568 0 00-1.817-.558c-.273-.044-.552-.072-.826-.112-.334-.046-.512-.258-.497-.587.014-.308.24-.53.576-.51 1.102.062 2.169.3 3.15.82 1.994 1.057 3.133 2.724 3.467 4.951.015.1.04.2.048.303.018.248.03.5.049.83-.008.06-.012.2-.046.333-.127.482-.86.543-1.029.056a1.46 1.46 0 01-.057-.464c-.002-1.017-.222-2.035-.736-2.92a5.455 5.455 0 00-2.282-2.142zm6.163 6.88c-.386.006-.558-.317-.585-.663-.049-.684-.084-1.37-.177-2.048-.497-3.581-3.354-6.545-6.917-7.18-.537-.096-1.086-.12-1.63-.178-.343-.036-.793-.056-.868-.484-.065-.357.238-.643.579-.662.092-.005.186 0 .278 0 4.616.13.282.01.012 0 4.802.14 8.743 3.33 9.589 8.077.145.81.196 1.638.26 2.459.028.347-.168.676-.541.68z" fill="#9069AE"/><path d="M0 0v60h60V0H0zm48.976 35.649l-.012.047c-.958 3.875-5.28 8.033-9.247 8.897l-.044.008c-3.21.613-6.442.919-9.672.919-.951 0-1.903-.03-2.852-.083l-4.383 4.556c-1.084 1.128-2.991.36-2.991-1.205v-4.325c-3.82-1.091-7.82-5.057-8.737-8.767l-.012-.047a37.856 37.856 0 010-16.309l.012-.048c.959-3.874 5.28-8.03 9.247-8.896l.046-.008a51.39 51.39 0 0119.343 0l.045.008c3.967.865 8.289 5.022 9.247 8.896l.011.048a37.88 37.88 0 01-.001 16.309z" fill="#9069AE"/></svg>