<svg width="60" height="60" fill="none" xmlns="http://www.w3.org/2000/svg"><path fill="#fff" d="M6 6h48v49H6z"/><path d="M30.027 12.55c-9.594 0-17.4 7.805-17.4 17.4 0 3.342.95 6.59 2.748 9.389l.432.673-1.692 6.011 6.219-1.601.64.392a17.361 17.361 0 009.053 2.537c9.594 0 17.4-7.805 17.4-17.4 0-9.596-7.806-17.401-17.4-17.401zm10.669 22.748l-.217 1.014a4.379 4.379 0 01-1.91 2.786c-1.245.797-2.858 1.187-4.908.608-6.363-1.8-9.962-6.012-11.894-8.645-1.93-2.633-2.676-5.267-2.193-7.417.324-1.444 1.377-2.55 2.037-3.122a1.65 1.65 0 011.17-.4l1.36.074c.266.015.503.18.608.426l1.98 4.634a.704.704 0 01-.115.738l-1.725 1.994a.522.522 0 00-.066.583c2.271 4.374 6.41 6.107 7.645 6.541.21.074.444.005.58-.172l1.804-2.339c.2-.26.555-.347.853-.209l4.594 2.118a.703.703 0 01.397.788z" fill="#53CF60"/><path d="M0 0v60h60V0H0zm30.027 50.904c-3.6 0-7.126-.921-10.244-2.67l-10.765 2.77 2.94-10.438A20.898 20.898 0 019.072 29.95c0-11.555 9.4-20.956 20.954-20.956s20.955 9.4 20.955 20.956c0 11.554-9.4 20.954-20.955 20.954z" fill="#53CF60"/></svg>