<svg width="40" height="40" viewBox="0 0 40 40" fill="none" xmlns="http://www.w3.org/2000/svg">
<rect x="4.6665" y="4.66663" width="35.3333" height="32" fill="white"/>
<path d="M17.5891 29.5872C17.5891 29.6366 17.5891 29.6981 17.5616 29.7321C17.3773 29.9701 17.1579 30.1687 16.8705 30.273C16.6203 30.364 16.4217 30.2532 16.368 29.9932C16.3471 29.8912 16.346 29.7825 16.346 29.6772C16.3449 27.7419 16.3394 23.7736 16.3373 23.7253H14.9099C14.9099 23.7791 14.9077 29.3064 14.911 30.3508C14.9121 30.6328 14.9417 30.9148 15.0591 31.177C15.1853 31.4611 15.3959 31.6411 15.7075 31.6926C15.9368 31.7321 16.1606 31.7069 16.3778 31.6323C16.8233 31.4787 17.1733 31.189 17.4805 30.8413C17.5079 30.8105 17.5364 30.7809 17.588 30.725V31.5928H19.0197V23.7133L17.588 23.7165V29.5872H17.5891Z" fill="#FF6663"/>
<path d="M24.3574 24.3418C24.0557 23.6989 23.4216 23.5289 22.8708 23.666C22.5373 23.7505 22.2674 23.9425 22.0447 24.1915C21.9712 24.2749 21.89 24.4362 21.89 24.4362V20.9243H20.4561V31.5927H21.89V30.9937C21.89 30.9937 21.992 31.1012 22.0282 31.1407C22.3574 31.4973 22.7567 31.6937 23.2493 31.698C23.8549 31.7046 24.2762 31.4117 24.4682 30.8357C24.5571 30.568 24.5856 30.2926 24.5867 30.0129C24.5878 28.5219 24.5878 27.0309 24.5856 25.5399C24.5856 25.1274 24.5352 24.7215 24.3574 24.3418ZM23.1089 29.8351C23.1089 29.9152 23.099 29.9953 23.0826 30.0732C23.0167 30.3859 22.7787 30.5252 22.4418 30.4572C22.2378 30.4144 22.0776 30.297 21.9405 30.1489C21.9339 30.1412 21.8944 30.0875 21.8944 30.0875V29.9712L21.8911 25.2338C21.8911 25.2338 21.9218 25.146 21.9898 25.0868C22.1588 24.9376 22.3442 24.8443 22.5768 24.8663C22.7754 24.886 22.9334 24.9771 23.0069 25.1603C23.0617 25.2996 23.1056 25.4554 23.1067 25.6046C23.1133 27.0155 23.1111 28.4242 23.1089 29.8351Z" fill="#FF6663"/>
<path d="M19.1995 15.0426C19.5341 15.0426 19.8062 14.7705 19.8062 14.4359V10.1571C19.8062 9.8225 19.5341 9.55042 19.1995 9.55042C18.8649 9.55042 18.5928 9.8225 18.5928 10.1571V14.4359C18.5928 14.7705 18.8649 15.0426 19.1995 15.0426Z" fill="#FF6663"/>
<path d="M14.9131 20.9243H9.94531V22.4537H11.6184V31.5927H13.2356V22.4493H14.9131V20.9243Z" fill="#FF6663"/>
<path d="M28.4537 28.7962V29.8078C28.4537 30.1611 28.1674 30.4474 27.8141 30.4474C27.4608 30.4474 27.1745 30.1611 27.1745 29.8078V27.8385H29.9206C29.9206 27.8385 29.936 26.4649 29.925 25.8417C29.9206 25.5762 29.9008 25.3063 29.846 25.0463C29.7034 24.3726 29.3413 23.8636 28.6622 23.6409C28.4625 23.575 28.2486 23.541 28.039 23.5279C27.3413 23.4829 26.7302 23.6826 26.2529 24.2169C25.8338 24.6853 25.6879 25.2481 25.6879 25.8592C25.6857 27.0277 25.6802 28.1961 25.6912 29.3645C25.6945 29.6619 25.7285 29.9658 25.7954 30.2554C25.9413 30.8775 26.2803 31.3668 26.8805 31.6367C27.3182 31.8353 27.7812 31.8451 28.2486 31.776C29.0012 31.6652 29.5147 31.2615 29.7637 30.5341C29.9502 29.9888 29.9283 28.7951 29.9283 28.7951H28.4537V28.7962ZM27.1745 25.5137C27.1745 25.1604 27.4608 24.874 27.8141 24.874C28.1674 24.874 28.4537 25.1615 28.4537 25.5137V26.6185H27.1745V25.5137Z" fill="#FF6663"/>
<path d="M0 0V40H40V0H0ZM22.5338 8.33704H23.9908V14.3767C23.9908 14.4568 23.9974 14.538 24.0116 14.6159C24.0555 14.8649 24.2398 14.9823 24.4801 14.8989C24.7719 14.798 24.9947 14.595 25.1845 14.3569C25.2119 14.3229 25.2064 14.2593 25.2064 14.2099V8.33704H26.6743V16.2583H25.2064L25.2075 15.4069C25.0451 15.5671 24.9069 15.7163 24.7544 15.8501C24.4845 16.0871 24.1795 16.2648 23.8218 16.3351C23.2733 16.4426 22.8048 16.2692 22.6304 15.6998C22.5722 15.51 22.5371 15.306 22.5349 15.1085V8.33704H22.5338ZM19.1996 8.13846C20.3604 8.13846 21.3006 9.07979 21.3006 10.2405V14.3537C21.3006 15.5144 20.3604 16.4546 19.1996 16.4546C18.0389 16.4546 17.0976 15.5144 17.0976 14.3537V10.2405C17.0987 9.07979 18.0389 8.13846 19.1996 8.13846ZM13.5462 5.53608C13.5462 5.53608 14.2143 8.37105 14.5325 9.71393H14.5336C14.8518 8.37105 15.5199 5.53608 15.5199 5.53608H17.1897C17.1897 5.53608 15.9061 9.79182 15.3323 11.6898C15.3114 11.7579 15.3016 11.8325 15.3016 11.9049L15.3027 16.2572H13.7623L13.7634 11.9049C13.7634 11.8325 13.7535 11.759 13.7327 11.6898C13.1589 9.79182 11.8753 5.53608 11.8753 5.53608H13.5462ZM31.9109 30.7951C31.9109 32.7425 30.3552 34.3323 28.41 34.374C22.8037 34.4935 17.1952 34.4935 11.5889 34.374C9.64371 34.3323 8.08799 32.7425 8.08799 30.7951V22.039C8.08799 20.0938 9.64261 18.503 11.5889 18.4613C17.1952 18.3406 22.8037 18.3406 28.41 18.4613C30.3552 18.503 31.9109 20.0927 31.9109 22.039V30.7951Z" fill="#FF6663"/>
</svg>
